<?xml version="1.0" standalone="no"?>
<!DOCTYPE svg PUBLIC "-//W3C//DTD SVG 20010904//EN"
 "http://www.w3.org/TR/2001/REC-SVG-20010904/DTD/svg10.dtd">
<svg version="1.0" xmlns="http://www.w3.org/2000/svg"
 width="70.000000pt" height="72.000000pt" viewBox="0 0 70.000000 72.000000"
 preserveAspectRatio="xMidYMid meet">
<metadata>
Created by potrace 1.10, written by Peter Selinger 2001-2011
</metadata>
<g transform="translate(0.000000,72.000000) scale(0.050000,-0.050000)"
fill="#ff0000" stroke="none">
<path d="M676 1365 c-74 -85 -101 -212 -54 -259 12 -12 17 -32 10 -43 -19 -31
-71 -4 -67 34 5 43 -64 203 -87 203 -24 0 -23 -41 4 -117 12 -35 34 -63 48
-63 16 0 22 -15 16 -40 -8 -28 2 -44 35 -57 l46 -16 -45 -12 c-73 -19 -102 3
-102 78 0 47 -11 72 -35 81 -19 7 -59 29 -88 49 -87 60 -100 49 -95 -83 5
-132 16 -148 117 -174 37 -10 72 -31 76 -47 7 -24 5 -24 -11 -1 -15 21 -27 11
-54 -45 -33 -70 -35 -71 -83 -39 -53 35 -244 -33 -246 -88 -4 -103 202 -147
292 -63 28 26 47 32 56 19 7 -12 5 -22 -5 -22 -11 0 -24 -16 -29 -35 -6 -22
-54 -49 -133 -74 -127 -39 -160 -62 -129 -90 22 -20 211 68 192 89 -8 9 1 11
21 4 22 -9 40 -2 47 16 20 52 62 35 52 -20 -6 -30 -23 -50 -44 -50 -40 0 -121
-80 -121 -120 0 -15 -14 -43 -32 -62 -43 -48 -19 -78 62 -78 113 0 175 33 160
85 -10 35 -8 38 8 15 17 -24 21 -19 22 25 0 34 11 55 29 55 47 0 55 -36 19
-90 -18 -28 -28 -57 -22 -63 7 -6 -1 -25 -17 -41 -34 -33 -39 -86 -8 -86 11 0
52 65 91 145 l70 145 -10 -110 c-14 -156 52 -301 112 -246 97 88 106 193 23
289 -25 28 -24 34 3 44 18 7 27 5 21 -5 -6 -10 3 -23 19 -29 17 -7 51 -60 78
-120 46 -104 83 -149 105 -126 21 21 -121 294 -148 284 -14 -5 -25 -2 -25 8 0
10 11 21 24 26 33 11 1 55 -41 55 -19 0 -45 10 -58 23 -17 17 -47 11 -120 -25
-104 -52 -165 -53 -165 -5 0 19 12 26 36 18 30 -9 36 3 39 79 2 50 -5 90 -15
90 -11 0 -20 12 -20 27 0 14 -22 38 -50 53 -51 27 -65 68 -31 89 10 6 24 3 30
-7 7 -12 40 -10 86 6 75 26 158 135 133 175 -8 13 10 18 45 14 53 -7 57 -3 54
61 -3 48 2 60 14 40 13 -19 18 -5 19 47 0 41 -9 75 -20 75 -11 0 -19 7 -17 15
4 18 -39 125 -49 125 -4 0 -22 -16 -38 -35z"/>
<path d="M893 1200 c-29 -43 -53 -90 -53 -102 0 -13 -23 -44 -50 -70 l-51 -47
41 -41 c22 -22 40 -49 40 -60 0 -11 20 -21 45 -23 119 -8 250 -77 147 -77 -62
0 -134 -120 -124 -207 5 -46 10 -101 11 -123 1 -32 5 -34 20 -11 13 21 21 9
32 -47 14 -74 182 -191 232 -160 22 14 22 108 0 108 -10 0 -13 22 -8 48 11 57
-55 132 -115 132 -34 0 -39 9 -27 53 10 41 7 49 -13 37 -18 -11 -21 -8 -11 9
10 15 5 33 -11 43 -22 14 -21 17 7 18 19 0 35 -7 35 -15 0 -8 23 -16 52 -18
l51 -3 -44 47 c-24 25 -37 55 -30 67 16 26 -31 102 -63 102 -13 0 -29 9 -36
20 -7 11 1 14 19 8 23 -9 28 -4 19 20 -8 22 -1 32 22 32 18 0 38 -18 44 -39
10 -39 183 25 217 81 29 47 -20 50 -105 7 -62 -31 -102 -41 -117 -28 -12 10
-28 13 -35 6 -7 -6 -27 3 -44 21 -30 29 -30 32 -1 32 17 0 31 -9 31 -21 0 -14
13 -14 40 1 29 15 40 15 40 0 0 -13 10 -16 21 -9 12 7 17 18 11 24 -6 6 8 37
30 68 76 107 -2 151 -152 88 -53 -22 -66 -37 -56 -63 9 -24 5 -30 -11 -20 -15
9 -23 -3 -23 -36 0 -37 -8 -48 -30 -39 -31 12 -43 87 -13 87 9 0 27 20 39 45
13 25 38 65 56 90 28 39 29 45 3 45 -16 0 -53 -36 -82 -80z"/>
<path d="M55 1220 c-8 -27 -15 -70 -15 -95 0 -25 -9 -45 -20 -45 -11 0 -20
-13 -20 -30 0 -16 9 -30 20 -30 11 0 20 10 20 23 0 12 12 33 26 45 17 14 22
49 15 102 -10 72 -13 75 -26 30z"/>
<path d="M129 978 c-8 -12 -6 -29 4 -38 26 -27 211 -102 198 -81 -6 9 0 22 14
27 14 5 -11 24 -55 42 -44 18 -95 42 -114 52 -23 13 -39 12 -47 -2z"/>
<path d="M1170 840 c11 -18 3 -20 -30 -10 -39 12 -44 9 -35 -27 6 -22 1 -44
-12 -49 -15 -5 -10 -19 12 -42 19 -19 43 -49 53 -68 17 -29 26 -30 56 -8 20
14 61 36 92 49 65 28 63 67 -6 116 -66 47 -151 72 -130 39z"/>
<path d="M664 756 c-50 -50 -29 -99 41 -92 63 6 68 13 58 96 -4 28 -70 25 -99
-4z"/>
<path d="M1071 604 c-24 -23 -9 -42 24 -30 19 7 28 5 20 -4 -8 -9 22 -38 67
-63 94 -54 118 -58 118 -21 0 28 -211 136 -229 118z"/>
<path d="M1151 89 c-21 -16 -35 -30 -30 -30 106 -17 121 -15 115 16 -8 44 -39
49 -85 14z"/>
</g>
</svg>
